<svg width="141" height="141" viewBox="0 0 141 141" fill="none" xmlns="http://www.w3.org/2000/svg">
    <path d="M140.835 47.8252L138.387 49.369L126.196 57.024L73.9716 89.7974L73.3126 90.2323L73.171 90.3193L70.5118 91.9937L70.4177 92.0375L68.2289 90.6674L67.8284 90.4063L18.3573 59.3511L14.992 57.2416L0.164684 47.9337L0 47.8252L14.992 38.4085L68.7232 4.67834H72.1121L126.196 38.6257L127.985 39.7568L140.835 47.8252Z" fill="#4D3D6F"/>
    <path d="M128.844 4.42415V110.136C128.844 112.562 126.674 114.538 123.986 114.538H17.1541C14.4908 114.538 12.3207 112.562 12.3207 110.136V4.42415C12.3207 1.9762 14.4908 0 17.1541 0H123.986C126.674 0 128.844 1.9762 128.844 4.42415Z" fill="#C7C9FA"/>
    <path d="M82.9738 20.6821H30.5096V27.671H82.9738V20.6821Z" fill="#CA82D0"/>
    <path d="M82.9738 19.5784H30.5096V26.5672H82.9738V19.5784Z" fill="#A4A5CD" fill-opacity="0.99"/>
    <path d="M110.235 59.1215H30.5096V66.1103H110.235V59.1215Z" fill="#CA82D0"/>
    <path d="M110.235 58.0179H30.5096V65.0068H110.235V58.0179Z" fill="#A4A5CD" fill-opacity="0.99"/>
    <path d="M110.235 78.3412H30.5096V85.3301H110.235V78.3412Z" fill="#CA82D0"/>
    <path d="M110.235 77.2377H30.5096V84.2266H110.235V77.2377Z" fill="#A4A5CD" fill-opacity="0.99"/>
    <path d="M110.235 39.9017H30.5096V46.8905H110.235V39.9017Z" fill="#CA82D0"/>
    <path d="M110.235 38.7982H30.5096V45.787H110.235V38.7982Z" fill="#A4A5CD" fill-opacity="0.99"/>
    <path d="M70.5823 88.7083L69.7586 89.1938L53.8251 98.4968L51.8715 99.6493L3.41263 127.942L0.164673 129.823V47.5941L19.6756 58.9801L67.9229 87.1512L68.2993 87.3737L70.5118 88.6678L70.5823 88.7083Z" fill="#7E709F"/>
    <path d="M140.514 46.0709C140.781 45.9148 141 46.0404 141 46.3499V127.473C141 127.783 140.995 128.032 140.988 128.026C140.982 128.02 140.95 127.997 140.917 127.975C140.885 127.953 140.837 127.921 140.811 127.904C140.785 127.888 140.759 127.874 140.752 127.874C140.746 127.874 140.522 127.746 140.255 127.59L73.1157 88.3985C72.8486 88.2426 72.4118 87.9862 72.1452 87.829L71.9142 87.6926C71.6476 87.5354 71.2389 87.2931 71.0059 87.154C70.7729 87.0149 70.8013 86.7742 71.069 86.6186L72.7789 85.6261C73.0466 85.4708 73.2815 85.3345 73.3008 85.3235C73.3203 85.3124 73.352 85.294 73.3715 85.283C73.3911 85.272 73.6257 85.1356 73.8934 84.98L75.3915 84.1095C75.6592 83.9542 76.0965 83.6992 76.3639 83.5431L140.514 46.0709Z" fill="#7E709F"/>
    <path opacity="0.68" d="M103.861 31.1982C109.669 31.1982 114.377 26.4899 114.377 20.6821C114.377 14.8742 109.669 10.166 103.861 10.166C98.0535 10.166 93.3453 14.8742 93.3453 20.6821C93.3453 26.4899 98.0535 31.1982 103.861 31.1982Z" fill="#DBD3EB"/>
    <path d="M141 117.11V129.725H140.859L138.835 129.819H7.62528L7.53137 127.866C9.90854 126.242 13.0618 124.053 15.1096 122.664L15.3918 122.476L22.2645 117.745L32.9965 110.332L36.1029 108.19L68.6995 85.7142L70.888 84.1841C71.4058 83.855 71.9943 83.5722 72.6296 83.3844C73.3828 83.1253 74.2065 82.9606 75.0302 82.8901C75.3124 82.8664 75.5713 82.843 75.8539 82.8664C76.1361 82.8193 76.419 82.8193 76.7012 82.8193C77.4544 82.7959 78.1842 82.8664 78.89 83.0074C79.643 83.1487 80.3257 83.3844 80.9376 83.7135L105.65 97.4582L117.864 104.26L121.042 106.025L132.55 112.426L140.129 116.639C140.341 116.757 140.576 116.875 140.811 117.016C140.859 117.04 140.929 117.087 141 117.11Z" fill="#6F5F93"/>
    <path d="M141 121.559V129.819H0.164673V121.559C2.63603 120.052 5.88399 118.005 8.00202 116.734L8.28429 116.545L15.3684 112.145L26.4535 105.272L29.6543 103.272L63.2864 82.3958L65.5457 80.9838C66.7225 80.2777 68.2523 79.9247 69.7586 79.901C70.0409 79.8773 70.2998 79.8773 70.5823 79.901C70.8649 79.8773 71.1472 79.8773 71.4297 79.901C72.0887 79.901 72.7243 79.9718 73.3363 80.1128C74.1836 80.2777 74.9599 80.5837 75.6192 80.9838L78.8906 83.0077L99.6487 95.9053L111.511 103.272L114.594 105.202L125.797 112.145L133.163 116.734C133.375 116.852 133.587 116.969 133.822 117.111C135.328 118.076 137.258 119.276 139.07 120.382C139.729 120.805 140.388 121.205 141 121.559Z" fill="#7965A2"/>
    <path opacity="0.2" d="M128.832 4.42443V5.60117C128.832 3.15377 126.667 1.17674 123.984 1.17674H17.1571C14.4979 1.17674 12.3091 3.1535 12.3091 5.60117V4.42443C12.3088 1.97675 14.4979 0 17.1571 0H123.984C126.667 0 128.832 1.97675 128.832 4.42443Z" fill="#BADB9E"/>
</svg>
